P3
# Makes a target shape
20 20
255
255  50  42 255  50  42 255  50  42 255  50  42 255  50  42 255  50  42 255  50  42 255  50  42 255  50  42 255  50  42 255  50  42 255  50  42 255  50  42 255  50  42 255  50  42 255  50  42 255  50  42 255  50  42 255  50  42 255  50  42
255  50  42 255  50  42 255  50  42 255  50  42 255  50  42 255  50  42 255  50  42 255  50  42 255  50  42 255  50  42 255  50  42 255  50  42 255  50  42 255  50  42 255  50  42 255  50  42 255  50  42 255  50  42 255  50  42 255  50  42
255  50  42 255  50  42  12 200 244  12 200 244  12 200 244  12 200 244  12 200 244  12 200 244  12 200 244  12 200 244  12 200 244  12 200 244  12 200 244  12 200 244  12 200 244  12 200 244  12 200 244  12 200 244 255  50  42 255  50  42
255  50  42 255  50  42  12 200 244  12 200 244  12 200 244  12 200 244  12 200 244  12 200 244  12 200 244  12 200 244  12 200 244  12 200 244  12 200 244  12 200 244  12 200 244  12 200 244  12 200 244  12 200 244 255  50  42 255  50  42
255  50  42 255  50  42  12 200 244  12 200 244 255  50  42 255  50  42 255  50  42 255  50  42 255  50  42 255  50  42 255  50  42 255  50  42 255  50  42 255  50  42 255  50  42 255  50  42  12 200 244  12 200 244 255  50  42 255  50  42
255  50  42 255  50  42  12 200 244  12 200 244 255  50  42 255  50  42 255  50  42 255  50  42 255  50  42 255  50  42 255  50  42 255  50  42 255  50  42 255  50  42 255  50  42 255  50  42  12 200 244  12 200 244 255  50  42 255  50  42
255  50  42 255  50  42  12 200 244  12 200 244 255  50  42 255  50  42  12 200 244  12 200 244  12 200 244  12 200 244  12 200 244  12 200 244  12 200 244  12 200 244 255  50  42 255  50  42  12 200 244  12 200 244 255  50  42 255  50  42
255  50  42 255  50  42  12 200 244  12 200 244 255  50  42 255  50  42  12 200 244  12 200 244  12 200 244  12 200 244  12 200 244  12 200 244  12 200 244  12 200 244 255  50  42 255  50  42  12 200 244  12 200 244 255  50  42 255  50  42
255  50  42 255  50  42  12 200 244  12 200 244 255  50  42 255  50  42  12 200 244  12 200 244 255  50  42 255  50  42 255  50  42 255  50  42  12 200 244  12 200 244 255  50  42 255  50  42  12 200 244  12 200 244 255  50  42 255  50  42
255  50  42 255  50  42  12 200 244  12 200 244 255  50  42 255  50  42  12 200 244  12 200 244 255  50  42 255  50  42 255  50  42 255  50  42  12 200 244  12 200 244 255  50  42 255  50  42  12 200 244  12 200 244 255  50  42 255  50  42
255  50  42 255  50  42  12 200 244  12 200 244 255  50  42 255  50  42  12 200 244  12 200 244 255  50  42 255  50  42 255  50  42 255  50  42  12 200 244  12 200 244 255  50  42 255  50  42  12 200 244  12 200 244 255  50  42 255  50  42
255  50  42 255  50  42  12 200 244  12 200 244 255  50  42 255  50  42  12 200 244  12 200 244 255  50  42 255  50  42 255  50  42 255  50  42  12 200 244  12 200 244 255  50  42 255  50  42  12 200 244  12 200 244 255  50  42 255  50  42
255  50  42 255  50  42  12 200 244  12 200 244 255  50  42 255  50  42  12 200 244  12 200 244  12 200 244  12 200 244  12 200 244  12 200 244  12 200 244  12 200 244 255  50  42 255  50  42  12 200 244  12 200 244 255  50  42 255  50  42
255  50  42 255  50  42  12 200 244  12 200 244 255  50  42 255  50  42  12 200 244  12 200 244  12 200 244  12 200 244  12 200 244  12 200 244  12 200 244  12 200 244 255  50  42 255  50  42  12 200 244  12 200 244 255  50  42 255  50  42
255  50  42 255  50  42  12 200 244  12 200 244 255  50  42 255  50  42 255  50  42 255  50  42 255  50  42 255  50  42 255  50  42 255  50  42 255  50  42 255  50  42 255  50  42 255  50  42  12 200 244  12 200 244 255  50  42 255  50  42
255  50  42 255  50  42  12 200 244  12 200 244 255  50  42 255  50  42 255  50  42 255  50  42 255  50  42 255  50  42 255  50  42 255  50  42 255  50  42 255  50  42 255  50  42 255  50  42  12 200 244  12 200 244 255  50  42 255  50  42
255  50  42 255  50  42  12 200 244  12 200 244  12 200 244  12 200 244  12 200 244  12 200 244  12 200 244  12 200 244  12 200 244  12 200 244  12 200 244  12 200 244  12 200 244  12 200 244  12 200 244  12 200 244 255  50  42 255  50  42
255  50  42 255  50  42  12 200 244  12 200 244  12 200 244  12 200 244  12 200 244  12 200 244  12 200 244  12 200 244  12 200 244  12 200 244  12 200 244  12 200 244  12 200 244  12 200 244  12 200 244  12 200 244 255  50  42 255  50  42
255  50  42 255  50  42 255  50  42 255  50  42 255  50  42 255  50  42 255  50  42 255  50  42 255  50  42 255  50  42 255  50  42 255  50  42 255  50  42 255  50  42 255  50  42 255  50  42 255  50  42 255  50  42 255  50  42 255  50  42
255  50  42 255  50  42 255  50  42 255  50  42 255  50  42 255  50  42 255  50  42 255  50  42 255  50  42 255  50  42 255  50  42 255  50  42 255  50  42 255  50  42 255  50  42 255  50  42 255  50  42 255  50  42 255  50  42 255  50  42